<svg width="376" height="144" viewBox="0 0 376 144" fill="none" xmlns="http://www.w3.org/2000/svg">
<path d="M217.769 87.4832C216.74 87.4822 215.72 87.2768 214.77 86.879C213.82 86.4811 212.959 85.8987 212.236 85.1655C210.768 83.6783 209.946 81.673 209.946 79.5838C209.946 77.4945 210.768 75.4893 212.236 74.0021C212.959 73.2683 213.821 72.6857 214.772 72.288C215.722 71.8904 216.742 71.6856 217.773 71.6856C218.803 71.6856 219.823 71.8904 220.774 72.288C221.724 72.6857 222.587 73.2683 223.31 74.0021C224.777 75.4893 225.6 77.4945 225.6 79.5838C225.6 81.673 224.777 83.6783 223.31 85.1655C222.586 85.8996 221.723 86.4824 220.772 86.8803C219.821 87.2782 218.8 87.4831 217.769 87.4832ZM217.769 63.1815C214.546 63.1736 211.394 64.1287 208.718 65.9243C206.029 67.7284 203.932 70.2855 202.69 73.2757C201.447 76.2658 201.114 79.556 201.733 82.7344C202.351 85.9128 203.894 88.8381 206.167 91.144C208.44 93.4499 211.343 95.0341 214.512 95.6981C217.675 96.3347 220.956 96.0102 223.933 94.7661C226.91 93.522 229.447 91.4154 231.216 88.7175C233.31 85.5619 234.255 81.7822 233.891 78.0126C233.528 74.2431 231.879 70.7133 229.221 68.0158C227.722 66.5018 225.938 65.2985 223.973 64.4748C222.008 63.6511 219.9 63.2233 217.769 63.2158V63.1815Z" fill="#333333"/>
<path d="M288.09 87.7441C287.021 87.7442 285.962 87.5321 284.976 87.1201C283.99 86.7081 283.095 86.1045 282.343 85.3441C280.819 83.8036 279.964 81.7238 279.964 79.5566C279.964 77.3895 280.819 75.3098 282.343 73.7693C283.093 73.0105 283.986 72.4078 284.97 71.9959C285.954 71.5839 287.009 71.371 288.076 71.3693C289.123 71.3717 290.158 71.5884 291.118 72.0058C292.078 72.4233 292.942 73.0327 293.658 73.7966C294.385 74.5567 294.946 75.4607 295.303 76.4503C295.948 78.457 295.948 80.6151 295.303 82.6218C294.936 83.6065 294.376 84.5085 293.658 85.2756C292.941 86.0406 292.079 86.6538 291.121 87.0789C290.163 87.5118 289.127 87.7451 288.076 87.7646L288.09 87.7441ZM295.536 66.6584C294.341 65.5111 292.931 64.6105 291.387 64.0081C289.844 63.4057 288.197 63.1133 286.54 63.1475C278.997 63.1475 271.324 68.7841 271.324 79.5566C271.25 81.8479 271.664 84.1288 272.537 86.2484C273.411 88.3679 274.724 90.2778 276.391 91.8515C279.123 94.3922 282.694 95.8373 286.423 95.9109C288.125 95.949 289.816 95.6314 291.388 94.9783C292.958 94.3222 294.375 93.3488 295.55 92.119V95.2801H304.417V47.9658H295.502L295.536 66.6584Z" fill="#333333"/>
<path d="M325.119 87.4833C324.088 87.4832 323.067 87.2782 322.116 86.8803C321.165 86.4825 320.302 85.8996 319.578 85.1655C318.114 83.6766 317.293 81.672 317.293 79.5838C317.293 77.4956 318.114 75.4911 319.578 74.0021C320.301 73.2675 321.163 72.6842 322.113 72.286C323.064 71.8878 324.084 71.6827 325.115 71.6827C326.146 71.6827 327.166 71.8878 328.117 72.286C329.067 72.6842 329.929 73.2675 330.652 74.0021C332.116 75.4911 332.937 77.4956 332.937 79.5838C332.937 81.672 332.116 83.6766 330.652 85.1655C329.93 85.9 329.069 86.4832 328.119 86.8812C327.168 87.2791 326.149 87.4838 325.119 87.4833ZM325.119 63.1815C321.895 63.1715 318.743 64.1268 316.067 65.9244C314.058 67.2801 312.372 69.0614 311.128 71.1418C309.885 73.2222 309.115 75.5508 308.872 77.9623C308.629 80.3738 308.92 82.8092 309.724 85.0957C310.528 87.3823 311.825 89.4639 313.523 91.1929C315.216 92.9112 317.272 94.229 319.54 95.0496C321.809 95.8703 324.232 96.173 326.632 95.9357C329.033 95.6983 331.35 94.9269 333.413 93.678C335.477 92.429 337.235 90.7341 338.558 88.7175C339.898 86.7059 340.779 84.4241 341.137 82.0339C341.495 79.6437 341.322 77.2039 340.631 74.888C339.94 72.5721 338.747 70.4369 337.137 68.6341C335.527 66.8313 333.541 65.4051 331.317 64.4569C329.363 63.6362 327.266 63.2075 325.146 63.1952L325.119 63.1815Z" fill="#333333"/>
<path d="M253.933 87.4837C252.56 87.4918 251.208 87.1421 250.011 86.4689C248.816 85.7923 247.822 84.8102 247.131 83.6231C246.424 82.4355 246.041 81.083 246.02 79.7009C245.997 78.32 246.333 76.9567 246.994 75.7443C247.658 74.5364 248.627 73.5242 249.805 72.8094C250.974 72.0942 252.311 71.7015 253.681 71.6713C255.05 71.6412 256.403 71.9748 257.602 72.638C258.804 73.3013 259.811 74.2683 260.523 75.4425L267.826 70.9168C265.622 67.2854 262.078 64.6666 257.96 63.6261C253.841 62.5856 249.479 63.2069 245.814 65.3557C243.356 66.7971 241.314 68.8522 239.888 71.32C238.462 73.7877 237.702 76.5833 237.681 79.4333C237.66 82.2832 238.38 85.0897 239.77 87.5779C241.159 90.0661 243.171 92.1507 245.609 93.6277C248.028 95.0981 250.792 95.9048 253.622 95.9662C256.453 96.0276 259.249 95.3416 261.73 93.9774C264.219 92.607 266.308 90.6125 267.792 88.19L260.496 83.6231C259.827 84.7795 258.867 85.7397 257.71 86.4077C256.553 87.0756 255.242 87.4278 253.906 87.4288" fill="#333333"/>
<path d="M361.173 87.4832C359.804 87.4895 358.457 87.1398 357.265 86.4683C356.064 85.7871 355.062 84.8032 354.36 83.6146C353.657 82.426 353.278 81.0741 353.26 79.6935C353.237 78.3154 353.572 76.955 354.235 75.7465C354.898 74.538 355.864 73.5231 357.038 72.802C358.21 72.0898 359.549 71.6974 360.92 71.6637C362.29 71.6332 363.643 71.9668 364.842 72.6306C366.05 73.2942 367.062 74.2637 367.777 75.442L375.066 70.9094C373.613 68.5082 371.559 66.5275 369.107 65.1631C366.671 63.7885 363.916 63.079 361.118 63.106C356.891 63.2437 352.885 65.0335 349.962 68.0912C347.017 71.1628 345.373 75.2533 345.373 79.5083C345.373 83.7633 347.017 87.8539 349.962 90.9255C352.885 93.9832 356.891 95.7729 361.118 95.9105C363.916 95.9369 366.67 95.2275 369.107 93.8534C371.55 92.4868 373.596 90.5091 375.045 88.114L367.756 83.5472C367.085 84.7041 366.122 85.6645 364.963 86.3324C363.804 87.0003 362.49 87.3521 361.153 87.3528" fill="#333333"/>
<path d="M166.211 87.7441C166.002 88.0627 165.885 88.433 165.875 88.8138V95.3692H198.947V86.6058H177.758L198.535 55.5909C198.738 55.2638 198.855 54.8915 198.878 54.5075V48.0206H165.813V56.8047H186.96L166.211 87.7441Z" fill="#333333"/>
<path d="M72 144C86.2402 144 100.161 139.777 112.001 131.866C123.841 123.954 133.07 112.709 138.519 99.5532C143.969 86.3969 145.395 71.9202 142.617 57.9536C139.838 43.9869 132.981 31.1577 122.912 21.0883C112.842 11.0189 100.013 4.16163 86.0466 1.38349C72.08 -1.39464 57.6031 0.0311936 44.4469 5.4807C31.2906 10.9302 20.0457 20.1586 12.1343 31.999C4.2228 43.8393 0 57.7598 0 72C0 91.0956 7.58577 109.409 21.0884 122.912C34.591 136.414 52.9044 144 72 144Z" fill="#FEED5A"/>
<path d="M50.4546 75.874C51.5206 75.874 52.5626 75.5579 53.4489 74.9657C54.3352 74.3735 55.0261 73.5317 55.4341 72.5469C55.842 71.562 55.9487 70.4783 55.7408 69.4328C55.5328 68.3873 55.0195 67.4269 54.2657 66.6732C53.5119 65.9194 52.5516 65.4061 51.5061 65.1981C50.4606 64.9902 49.3769 65.0969 48.3921 65.5048C47.4073 65.9128 46.5654 66.6036 45.9732 67.4899C45.381 68.3762 45.0648 69.4183 45.0648 70.4843C45.0648 71.9137 45.6327 73.2846 46.6435 74.2954C47.6543 75.3062 49.0252 75.874 50.4546 75.874Z" fill="#333333"/>
<path d="M93.5591 75.874C94.625 75.874 95.667 75.5579 96.5534 74.9657C97.4397 74.3735 98.1304 73.5317 98.5383 72.5469C98.9463 71.562 99.0532 70.4783 98.8452 69.4328C98.6372 68.3873 98.1239 67.4269 97.3702 66.6732C96.6164 65.9194 95.6559 65.4061 94.6104 65.1981C93.5649 64.9902 92.4812 65.0969 91.4964 65.5048C90.5115 65.9128 89.6699 66.6036 89.0776 67.4899C88.4854 68.3762 88.1693 69.4183 88.1693 70.4843C88.1693 71.9137 88.7372 73.2846 89.7479 74.2954C90.7587 75.3062 92.1296 75.874 93.5591 75.874Z" fill="#333333"/>
<path d="M72.0414 107.986C65.0476 107.992 58.1192 106.639 51.6414 104.002L48.6518 102.741V97.5359L84.8986 43.7965H48.8643V36.0205H95.2939V42.2948L57.7442 97.9611C62.3626 99.4555 67.1873 100.214 72.0414 100.21C80.1347 100.21 88.0953 98.1547 95.1774 94.2377L98.942 101.04C90.7084 105.597 81.452 107.987 72.0414 107.986Z" fill="#333333"/>
</svg>
